<svg preserveAspectRatio="xMidYMid meet" data-bbox="56 40.5 87.999 119" viewBox="56 40.5 87.999 119" height="200" width="200" xmlns="http://www.w3.org/2000/svg" data-type="color" role="presentation" aria-hidden="true" aria-label="">
    <g>
        <path d="M138.662 159.5H61.338A5.34 5.34 0 0 1 56 154.167a5.344 5.344 0 0 1 4.63-5.287v-25.537c-2.61-.347-4.63-2.586-4.63-5.287s2.02-4.939 4.63-5.287V87.231c-2.61-.347-4.63-2.585-4.63-5.286s2.02-4.939 4.63-5.287V51.12A5.343 5.343 0 0 1 56 45.833a5.342 5.342 0 0 1 5.338-5.333h77.323a5.34 5.34 0 0 1 5.338 5.333 5.344 5.344 0 0 1-4.63 5.287v25.538c2.61.347 4.63 2.586 4.63 5.287s-2.02 4.939-4.63 5.287v25.538c2.61.347 4.63 2.586 4.63 5.287s-2.02 4.939-4.63 5.287v25.537a5.343 5.343 0 0 1 4.63 5.287 5.34 5.34 0 0 1-5.337 5.332zm-77.324-6.667c-.723 0-1.335.611-1.335 1.333 0 .735.599 1.333 1.335 1.333h77.323c.736 0 1.335-.598 1.335-1.333 0-.723-.611-1.333-1.335-1.333h-1.293a2 2 0 0 1-2.002-2v-29.444a2 2 0 0 1 2.002-2h1.293c.723 0 1.335-.611 1.335-1.333 0-.735-.599-1.333-1.335-1.333h-1.293a2 2 0 0 1-2.002-2V85.278a2 2 0 0 1 2.002-2h1.293c.723 0 1.335-.611 1.335-1.333 0-.723-.611-1.333-1.335-1.333h-1.293a2 2 0 0 1-2.002-2V49.167a2 2 0 0 1 2.002-2h1.293c.736 0 1.335-.598 1.335-1.333 0-.723-.611-1.333-1.335-1.333H61.338c-.723 0-1.335.611-1.335 1.333 0 .735.599 1.333 1.335 1.333h1.293a2 2 0 0 1 2.002 2v29.445a2 2 0 0 1-2.002 2h-1.293c-.723 0-1.335.611-1.335 1.333 0 .723.611 1.333 1.335 1.333h1.293a2 2 0 0 1 2.002 2v29.445a2 2 0 0 1-2.002 2h-1.293c-.736 0-1.335.598-1.335 1.333 0 .723.611 1.333 1.335 1.333h1.293a2 2 0 0 1 2.002 2v29.444a2 2 0 0 1-2.002 2h-1.293z" fill="#787878" data-color="1"></path>
        <path d="m87.017 51.172-24.386-.005a2 2 0 1 1 .001-4.001h.001l24.385.005a2 2 0 1 1-.001 4.001z" fill="#787878" data-color="1"></path>
        <path d="m137.367 87.255-30.392-.005a2.001 2.001 0 1 1 .001-4h.001l30.391.005a2.001 2.001 0 1 1-.001 4z" fill="#787878" data-color="1"></path>
        <path d="m137.348 123.395-30.392-.005a2.001 2.001 0 1 1 .001-4h.001l30.391.005a2.001 2.001 0 1 1-.001 4z" fill="#787878" data-color="1"></path>
        <path d="m137.375 152.83-36.397-.006a2.001 2.001 0 1 1 .001-4h.001l36.397.006a2.001 2.001 0 1 1-.002 4z" fill="#787878" data-color="1"></path>
        <path d="M93.824 152.824h-3.269a2 2 0 1 1 0-4h3.269a2 2 0 1 1 0 4z" fill="#787878" data-color="1"></path>
        <path d="M95.068 51.167h-2.879a2 2 0 1 1 0-4h2.879a2 2 0 1 1 0 4z" fill="#787878" data-color="1"></path>
        <path d="M62.627 87.255a2.002 2.002 0 0 1-2.002-1.999c-.001-1.104.896-2 2.001-2.001l14.598-.005h.001c1.105 0 2.001.895 2.002 1.999.001 1.104-.896 2-2.001 2.001l-14.599.005z" fill="#787878" data-color="1"></path>
        <path d="M62.636 123.395a2.002 2.002 0 0 1-2.002-1.999c-.001-1.104.896-2 2.001-2.001l14.598-.005h.001c1.105 0 2.001.895 2.002 1.999.001 1.104-.896 2-2.001 2.001l-14.599.005z" fill="#787878" data-color="1"></path>
    </g>
</svg>